<svg width="15" height="15" viewBox="0 0 15 15" fill="none" xmlns="http://www.w3.org/2000/svg">
<path fill-rule="evenodd" clip-rule="evenodd" d="M1.85001 7.50001C1.85001 4.66501 4.06001 1.85001 7.50001 1.85001C10.278 1.85001 11.652 3.90601 12.237 5.00001H10.5C10.3674 5.00001 10.2402 5.05268 10.1465 5.14645C10.0527 5.24022 10 5.3674 10 5.50001C10 5.63261 10.0527 5.75979 10.1465 5.85356C10.2402 5.94733 10.3674 6.00001 10.5 6.00001H13.5C13.6326 6.00001 13.7598 5.94733 13.8536 5.85356C13.9473 5.75979 14 5.63261 14 5.50001V2.50001C14 2.3674 13.9473 2.24022 13.8536 2.14645C13.7598 2.05268 13.6326 2.00001 13.5 2.00001C13.3674 2.00001 13.2402 2.05268 13.1465 2.14645C13.0527 2.24022 13 2.3674 13 2.50001V4.31301C12.296 3.07101 10.666 0.850006 7.50001 0.850006C3.43701 0.850006 0.850006 4.18501 0.850006 7.50001C0.850006 10.815 3.43701 14.15 7.50001 14.15C9.44401 14.15 11.062 13.38 12.214 12.208C12.8253 11.5845 13.3102 10.8487 13.642 10.041C13.667 9.98027 13.6797 9.91521 13.6795 9.84955C13.6793 9.78389 13.6662 9.71891 13.6409 9.65832C13.6156 9.59773 13.5786 9.54272 13.532 9.49642C13.4855 9.45013 13.4302 9.41346 13.3695 9.38851C13.3088 9.36355 13.2437 9.35081 13.1781 9.351C13.1124 9.35119 13.0474 9.36431 12.9868 9.38962C12.9262 9.41492 12.8712 9.45191 12.8249 9.49848C12.7786 9.54504 12.742 9.60027 12.717 9.66101C12.4344 10.349 12.0215 10.9758 11.501 11.507C10.53 12.497 9.16501 13.15 7.50001 13.15C4.06001 13.15 1.85001 10.335 1.85001 7.50001Z" fill="#193B3A" stroke="#193B3A"/>
</svg>
