<svg xmlns="http://www.w3.org/2000/svg" viewBox="0 0 783.8 604.8"><defs><style>.cls-1{fill:#fff;}</style></defs><g id="Camada_2" data-name="Camada 2"><g id="Camada_2-2" data-name="Camada 2"><path class="cls-1" d="M783.11,200.3c-3.71-13.08-21.18-17.52-27-19-12.18-3.1-22.24-.84-30,1a88.9,88.9,0,0,0-12,3.75c-4.38-8.23-7.47-12.93-7.74-13.34a11.38,11.38,0,0,0-4.95-4.15c-.42-1.29-.85-2.58-1.3-3.89q-3.46-9.93-7.69-19.25a1.21,1.21,0,0,1,0-.18L696,130.46c9.13,1.87,18.24,3.81,27.27,5.83a11.51,11.51,0,0,0,9.71-2.24,11.52,11.52,0,0,0,4.31-9v-50a11.5,11.5,0,0,0-9-11.22A1544,1544,0,0,0,573.65,37.37c-5.91-2.12-11.76-3.95-17.5-5.51a11.46,11.46,0,0,0-3.73-5.22c-15-11.8-39.53-26-71-26.57C467-.19,445.14-.6,426.73,16c-21.73,19.64-30.4,56.7-22.63,96.72a11.37,11.37,0,0,0,2,4.65,84.84,84.84,0,0,0-6.48,26.17h-6.34V279.53c3.38,0,6.74,0,10.11,0h1.14a348.16,348.16,0,0,1,0,36.69c-.27,4.93-.63,9.53-1,14-1.38,17.83-2.57,33.22,4.31,49.46,5.08,12,12.27,18.79,20.58,26.66l.8.76a110.85,110.85,0,0,0,37.48,23.74,11.59,11.59,0,0,0,3.85.72c.2.66.43,1.33.65,2h-157c.23-.67.44-1.34.65-2a11.71,11.71,0,0,0,3.87-.72,110.76,110.76,0,0,0,37.48-23.74l.81-.77c8.31-7.86,15.49-14.66,20.57-26.65,6.88-16.24,5.69-31.63,4.31-49.45-.34-4.45-.7-9.05-1-14a348.12,348.12,0,0,1,0-36.69h2.15c3.35,0,6.73,0,10.1,0V143.58c-2.34,0-4.66,0-7,0a84.92,84.92,0,0,0-6.68-26.39,11.58,11.58,0,0,0,1.89-4.43c7.76-40-.91-77.08-22.64-96.72C340.49-.6,318.65-.19,304.2.07c-31.47.59-56,14.77-71,26.57a11.41,11.41,0,0,0-3.74,5.22c-5.79,1.58-11.69,3.42-17.65,5.56a11.72,11.72,0,0,0-2.51,0,1546.31,1546.31,0,0,0-154,26.41,11.5,11.5,0,0,0-9,11.22v50a11.49,11.49,0,0,0,11.5,11.5,11.38,11.38,0,0,0,2.52-.28c10.2-2.29,20.5-4.47,30.81-6.56L94.3,143a225.42,225.42,0,0,0-8.81,21.69c-.46,1.31-.89,2.6-1.31,3.88a11.52,11.52,0,0,0-5,4.16c-.27.41-3.42,5.19-7.86,13.56a89.51,89.51,0,0,0-13.68-4.44c-7.76-1.84-17.83-4.1-30-1-5.83,1.48-23.29,5.92-27,19-3.63,12.75,7.78,26.82,18.08,33,9,5.42,20.33,6.61,31.76,3.86-9.93,32.06-18.34,78.8-7.82,130.1a11.37,11.37,0,0,0,2.68,5.34,208.67,208.67,0,0,0-4,21.33c-2.47,17.48-9,63.92,23.32,95.8.73.72,1.49,1.44,2.28,2.17a232.23,232.23,0,0,0-1.71,25,173.06,173.06,0,0,0,2,32.42c2.89,17.53,4.8,29.11,12.83,38.83,12.75,15.43,32.57,16.33,44.42,16.87,2.39.11,5.19.24,8.28.24,12.18,0,28.68-2,40.89-15a46.15,46.15,0,0,0,8.94-13.95c5.9.47,11.85.72,17.8.72,2.22,0,4.43,0,6.65-.1,19.89-.58,35.6-1.05,47.33-9.34,11-7.81,12.61-18.14,13.58-30.08a11.47,11.47,0,0,0,9.81,5.52h229a11.5,11.5,0,0,0,10.68-7.24c1,12.67,2.14,23.62,13.71,31.79,11.74,8.3,27.45,8.77,47.34,9.35q3.32.1,6.64.1c6,0,11.91-.25,17.81-.72a45.93,45.93,0,0,0,8.93,13.95c12.21,13,28.71,15,40.9,15,3.08,0,5.89-.13,8.28-.24,11.84-.54,31.66-1.44,44.41-16.87,8-9.72,10-21.3,12.84-38.83a173.76,173.76,0,0,0,2-32.42,229.69,229.69,0,0,0-1.71-25c.8-.73,1.56-1.45,2.28-2.17,32.36-31.88,25.79-78.32,23.32-95.8a210.88,210.88,0,0,0-4-21.33,11.45,11.45,0,0,0,2.67-5.34c10.43-50.81,2.27-97.13-7.53-129.16,10.7,2.12,21.16.76,29.65-4.33C775.33,227.12,786.74,213.05,783.11,200.3Zm-68.8-89.52c-16.32-3.5-32.79-6.75-49.17-9.71A195.63,195.63,0,0,0,631.66,68.7c27.72,4.44,55.34,9.66,82.65,15.61ZM431.08,119c13.82-23.25,37.46-29.58,44.37-31a11.5,11.5,0,1,0-4.51-22.55,94.52,94.52,0,0,0-46.48,24.87c-1.22-24.48,5.15-45.89,17.69-57.23,11.66-10.53,26.73-10.25,38.85-10a85.71,85.71,0,0,1,10.31.83,11.5,11.5,0,0,0,3.74,22.28,227.45,227.45,0,0,1,68.62,12,11.49,11.49,0,0,0,4.58,1.65A194.44,194.44,0,0,1,604.88,78c34.77,22.13,59.51,53.82,73.53,94.18a211.37,211.37,0,0,1,8.1,30.56l-.4.33.56.54a180.3,180.3,0,0,1,3.14,31,11.5,11.5,0,0,0,11.5,11.48h0a11.5,11.5,0,0,0,10.48-6.82c7.7,23.51,15,56.95,12.41,94.59-8.69-13.05-19.79-22.3-33.2-27.58a68.28,68.28,0,0,0-14.41-3.89c-.86-31.66-14.15-49.45-25.26-58.84-1.36-13.23-6.67-45-27.48-83.33l-.12-.22-.24,0c-.43-.07-19.79-3.35-52.54-7a72.84,72.84,0,0,0,7.16-19.77A76.85,76.85,0,0,0,574.65,91,11.5,11.5,0,0,0,553.1,99a56.67,56.67,0,0,1,3.1,12.43,20,20,0,0,1-21.59-5.94,11.5,11.5,0,0,0-17.47,15A43.46,43.46,0,0,0,539,134.11a42.53,42.53,0,0,0,10.72,1.37c1.41,0,2.76-.08,4-.2a52.85,52.85,0,0,1-8.57,15.19c-33.15-3.08-75.09-5.91-122.38-6.68A61.47,61.47,0,0,1,431.08,119Zm87.23,374.42V476.83a511.41,511.41,0,0,0,57.8-16.65A71.66,71.66,0,0,0,580,476.73,578.69,578.69,0,0,1,518.31,493.39ZM490.23,378.1a11.5,11.5,0,1,0-22.41-5.18,113.83,113.83,0,0,0-2.12,32.28,91.19,91.19,0,0,1-20.56-14.79l-.81-.77c-7.49-7.08-12-11.36-15.21-18.93-4.7-11.07-3.8-22.66-2.56-38.7.36-4.58.72-9.32,1-14.52a368.43,368.43,0,0,0,0-38.19A1067.5,1067.5,0,0,0,569,267.35a28.81,28.81,0,0,1-1.49,6.8c-5.4,15.28-24,25.86-46.4,26.34a11.35,11.35,0,0,0-2.7.39A78.72,78.72,0,0,0,478,286.5a11.5,11.5,0,0,0-1.18,23c5.24.27,23.38,2.37,36.88,18,13.87,16.08,12.91,34.81,12.29,40.17A11.51,11.51,0,0,0,536,380.41a12.34,12.34,0,0,0,1.35.07,11.51,11.51,0,0,0,11.41-10.17c.77-6.7,1.9-27.92-10.92-48.58,24.77-4.87,44.15-19.57,51.34-39.92a52.58,52.58,0,0,0,3-18.3q18.54-3.33,36.53-7.38c1.48.63,8.29,3.85,14.44,12.3l8.09,17.51a75,75,0,0,1,2.35,16.42,91.89,91.89,0,0,0-10.52,2.1,60.46,60.46,0,0,0-66.51,81.82,267.68,267.68,0,0,0-2.23,48.32c0,.56,0,1.12.08,1.67a459.75,459.75,0,0,1-56.09,16.93v-8.13a11.5,11.5,0,0,0-11.5-11.5H495.94C483.92,406.37,490,379.24,490.23,378.1ZM205.56,476.83a70.5,70.5,0,0,0,3.93-16.52,516.79,516.79,0,0,0,56.82,16.32v16.56A580.34,580.34,0,0,1,205.56,476.83Zm152.5-159.35c.28,5.21.65,9.95,1,14.53,1.24,16,2.14,27.63-2.56,38.7-3.2,7.57-7.72,11.85-15.2,18.93l-.82.77a91.29,91.29,0,0,1-20.65,14.84,116.75,116.75,0,0,0-2-32.33,11.5,11.5,0,1,0-22.41,5.18c.27,1.18,6.29,28.25-5.72,55.47H277.81a11.5,11.5,0,0,0-11.5,11.5V453a464.12,464.12,0,0,1-55.09-16.58c0-.6.05-1.21.08-1.82a266.77,266.77,0,0,0-2.23-48.32,60.47,60.47,0,0,0-56.26-82.71,60.85,60.85,0,0,0-10.25.89q-3-.79-6-1.36a75.78,75.78,0,0,1,2.37-17.32l8.1-17.51a38.4,38.4,0,0,1,13.07-11.65q14.3,3.15,28.93,5.87a52.7,52.7,0,0,0,3,18.41c7.19,20.35,26.56,35.05,51.33,39.92-12.82,20.66-11.69,41.88-10.91,48.58a11.5,11.5,0,0,0,11.41,10.17,10.14,10.14,0,0,0,1.34-.08,11.49,11.49,0,0,0,10.09-12.75c-.62-5.35-1.58-24.07,12.29-40.16,13.5-15.65,31.64-17.75,36.88-18a11.5,11.5,0,1,0-1.18-23A78.66,78.66,0,0,0,262.76,300a11.52,11.52,0,0,0-2.71-.4c-22.35-.47-41-11.05-46.4-26.33a29.06,29.06,0,0,1-1.48-6.73A1064.54,1064.54,0,0,0,358,279.28,371.43,371.43,0,0,0,358.06,317.48ZM304.62,23.07c12.12-.22,27.19-.5,38.85,10,12.53,11.33,18.9,32.72,17.69,57.18A94.47,94.47,0,0,0,315.07,65.8a11.5,11.5,0,0,0-4.52,22.55c6.92,1.38,30.56,7.71,44.38,31a61.62,61.62,0,0,1,8.24,24.48c-43.55.74-82.53,3.2-114.26,6a52.36,52.36,0,0,1-8-14.42c1.29.12,2.63.2,4.05.2a42.4,42.4,0,0,0,10.71-1.37,43.45,43.45,0,0,0,21.85-13.65,11.5,11.5,0,0,0-17.47-15,20,20,0,0,1-21.6,5.94,57.25,57.25,0,0,1,3.1-12.43,11.5,11.5,0,1,0-21.54-8,76.84,76.84,0,0,0-3.49,42.35,72.84,72.84,0,0,0,6.69,18.86c-37.33,3.93-59.67,7.71-60.13,7.79l-.24,0-.12.22c-22.83,42.09-27,76.21-27.77,86.65-10.09,10-20.6,27.07-21.45,54.93a69.67,69.67,0,0,0-18.93,4.48C81.2,311.65,70.09,320.9,61.4,334c-2.62-37.64,4.72-71.08,12.41-94.59a11.52,11.52,0,0,0,10.48,6.82h0a11.5,11.5,0,0,0,11.5-11.48c0-7,.87-32.17,11.4-62.48,14-40.36,38.77-72,73.54-94.18,39.53-25.17,81.54-31.22,109.82-31.86A11.5,11.5,0,0,0,294.3,23.9,85.88,85.88,0,0,1,304.62,23.07ZM69.31,84.31c28.13-6.13,56.6-11.46,85.16-16a196.84,196.84,0,0,0-33.65,32.33h-.06c-17.11,3.07-34.36,6.46-51.45,10.13ZM64.2,396.68c2-14,8-56.79,38.82-68.91.66-.26,1.32-.48,2-.7A60.45,60.45,0,0,0,188.38,413q.41,10.29-.06,20.58c-1.09,23.9-1.8,34-8.42,42.25l-.06.07c-11.7,14.55-34,15.36-43.45,15.71-29.11,1.06-46.25-9.58-55.51-18.7C56.78,449.13,62,412.38,64.2,396.68ZM245.29,532.41c-1,12.56-1.6,14.13-4.15,15.94-6.07,4.29-18.72,4.66-34.74,5.13-6.14.19-12.31.08-18.44-.3.27-2.17.5-4.32.72-6.43a114.76,114.76,0,0,0-4.09-44.62,56,56,0,0,0,7.33-5.65,540.15,540.15,0,0,0,51.92,15.17A72.71,72.71,0,0,1,245.29,532.41Zm250-12.84h-206v-63h206Zm83.91,33.91c-16-.47-28.67-.84-34.74-5.14-2.55-1.8-3.19-3.37-4.15-15.93a72.41,72.41,0,0,1,1-18.3,12.37,12.37,0,0,0,.17-2.42,539.33,539.33,0,0,0,52.14-15.3,56.82,56.82,0,0,0,7.43,5.74,115.14,115.14,0,0,0-4.09,44.62c.23,2.11.46,4.26.72,6.43C591.54,553.56,585.36,553.67,579.22,553.48Zm125.52-80.6c-9.26,9.12-26.42,19.77-55.51,18.7-9.5-.35-31.75-1.16-43.46-15.72-6.67-8.29-7.38-18.35-8.47-42.31q-.46-10.28-.06-20.58a60.45,60.45,0,0,0,83.38-85.9c.66.22,1.32.44,2,.7,30.79,12.12,36.84,54.87,38.82,68.91C723.65,412.38,728.84,449.13,704.74,472.88Z"/></g></g></svg>