<svg width="32" height="24" viewBox="0 0 32 24" fill="none" xmlns="http://www.w3.org/2000/svg">
<path d="M30.2695 3C30.7106 2.99958 31.1348 2.85318 31.4555 2.59073C31.7763 2.32827 31.9693 1.96957 31.9951 1.58791C32.021 1.20625 31.8777 0.830431 31.5946 0.537251C31.3115 0.244072 30.91 0.0556545 30.472 0.0105L30.2695 0H2.58157C2.1405 0.000423431 1.71627 0.146818 1.39554 0.409271C1.07482 0.671726 0.881816 1.03043 0.855968 1.41209C0.830119 1.79375 0.973376 2.16957 1.25647 2.46275C1.53956 2.75593 1.94112 2.94435 2.3791 2.9895L2.58157 3H30.2695ZM30.2695 13.5C30.7285 13.5 31.1686 13.342 31.4932 13.0607C31.8177 12.7794 32 12.3978 32 12C32 11.6022 31.8177 11.2206 31.4932 10.9393C31.1686 10.658 30.7285 10.5 30.2695 10.5H2.58157C2.12261 10.5 1.68246 10.658 1.35792 10.9393C1.03339 11.2206 0.851074 11.6022 0.851074 12C0.851074 12.3978 1.03339 12.7794 1.35792 13.0607C1.68246 13.342 2.12261 13.5 2.58157 13.5H30.2695ZM30.2695 24C30.7285 24 31.1686 23.842 31.4932 23.5607C31.8177 23.2794 32 22.8978 32 22.5C32 22.1022 31.8177 21.7206 31.4932 21.4393C31.1686 21.158 30.7285 21 30.2695 21H2.58157C2.12261 21 1.68246 21.158 1.35792 21.4393C1.03339 21.7206 0.851074 22.1022 0.851074 22.5C0.851074 22.8978 1.03339 23.2794 1.35792 23.5607C1.68246 23.842 2.12261 24 2.58157 24H30.2695Z" fill="white"/>
</svg>
